# xmcd
#
# Track frame offsets:
#	150
#	25164
#	49600
#	72995
#	96575
#	130513
#	153570
#	182646
#	207495
#	235581
#
# Disc length: 3489 seconds
#
# Revision: 0
# Processed by: cddbd v1.5.2PL0 Copyright (c) Steve Scherf et al.
# Submitted via: EasyCDDAExtractor 11.9.9.666
#
DISCID=840d9f0a
DTITLE=Degung Angklung Bali - The Best Of Instrumentalia (Rick's Rec)
DYEAR=2007
DGENRE=Country
TTITLE0=Ngipiang Tunangan
TTITLE1=Tresna Ngantos Mati
TTITLE2=Kanggoang Malu
TTITLE3=Jaja Kakne
TTITLE4=Don Dadape
TTITLE5=Merah Putih
TTITLE6=Ubad Bedak
TTITLE7=Pulau Bali
TTITLE8=Candra Metu
TTITLE9=Jukut Plecing
EXTD=
EXTT0=
EXTT1=
EXTT2=
EXTT3=
EXTT4=
EXTT5=
EXTT6=
EXTT7=
EXTT8=
EXTT9=
PLAYORDER=
